<svg version="1.1" xmlns="http://www.w3.org/2000/svg" width="300" height="500">

    <circle cx="150" cy="150" r="150" stroke-width="7" fill="red" />
    <rect fill="red" width="300" height="150" y="150"/>
    <circle cx="75" cy="90" r="25" fill="white"/>
    <circle cx="175" cy="90" r="25" fill="white"/>
    <circle cx="65" cy="90" r="10" fill="#67E3FB"/>
    <circle cx="165" cy="90" r="10" fill="#67E3FB"/>
    <rect x="190" y="190" fill="red" height="30" width="30" transform="rotate(45)" />
    <rect x="205" y="175" fill="red" height="30" width="30" transform="rotate(45)" />
    <rect x="220" y="160" fill="red" height="30" width="30" transform="rotate(45)" />
    <rect x="235" y="145" fill="red" height="30" width="30" transform="rotate(45)" />
    <rect x="250" y="130" fill="red" height="30" width="30" transform="rotate(45)" />
    <rect x="265" y="115" fill="red" height="30" width="30" transform="rotate(45)" />
    <rect x="280" y="100" fill="red" height="30" width="30" transform="rotate(45)" />
    <rect x="295" y="85" fill="red" height="30" width="30" transform="rotate(45)" />
    <rect x="310" y="70" fill="red" height="30" width="30" transform="rotate(45)" />
    <rect x="325" y="55" fill="red" height="30" width="30" transform="rotate(45)" />
    <rect x="340" y="40" fill="red" height="30" width="30" transform="rotate(45)" />
    <rect x="355" y="25" fill="red" height="30" width="30" transform="rotate(45)" />
    <rect x="370" y="10" fill="red" height="30" width="30" transform="rotate(45)" />
    <rect x="385" y="-5" fill="red" height="30" width="30" transform="rotate(45)" />
    <rect x="400" y="-20" fill="red" height="30" width="30" transform="rotate(45)" />
    <rect y="180" x="100" fill="white" height="30" width="60"/>
    <circle cx="100" cy="195" r="15" fill="white" />
    <circle cy="195" cx="160" r="15" fill="white" />
    
</svg>